HIERARCHY
ROOT Hips
{
	OFFSET 0.000000 0.000000 0.000000 
	CHANNELS 6 Xposition Yposition Zposition Yrotation Zrotation Xrotation 
	JOINT Lumbar
	{
		OFFSET 0.000000 0.000000 0.000000 
		CHANNELS 3 Zrotation Xrotation Yrotation
		JOINT Neck
		{
			OFFSET 0.000000 0.445665 0.000000 
			CHANNELS 3 Zrotation Xrotation Yrotation
			End Site
			{
				OFFSET 0.000000 0.227535 0.000000 
			}
		}
		JOINT RightShoulder
		{
			OFFSET 0.019635 0.377685 0.194865 
			CHANNELS 3 Zrotation Xrotation Yrotation
			JOINT RightElbow
			{
				OFFSET 0.000000 -0.243375 0.000000 
				CHANNELS 2 Zrotation Yrotation
				JOINT RightWrist
				{
					OFFSET 0.000000 -0.264825 0.000000 
					CHANNELS 2 Zrotation Xrotation
					End Site
					{
						OFFSET 0.006600 -0.176220 0.000990 
					}
				}
			}
		}
		JOINT LeftShoulder
		{
			OFFSET 0.019635 0.377685 -0.194865 
			CHANNELS 3 Zrotation Xrotation Yrotation
			JOINT LeftElbow
			{
				OFFSET 0.000000 -0.243375 0.000000 
				CHANNELS 2 Zrotation Yrotation
				JOINT LeftWrist
				{
					OFFSET 0.000000 -0.264825 0.000000 
					CHANNELS 2 Zrotation Xrotation
					End Site
					{
						OFFSET 0.006600 -0.176220 -0.000990 
					}
				}
			}
		}
	}
	JOINT RightHip
	{
		OFFSET 0.052140 -0.069960 0.075570 
		CHANNELS 3 Zrotation Xrotation Yrotation
		JOINT RightKnee
		{
			OFFSET 0.000000 -0.402270 0.000000 
			CHANNELS 1 Zrotation
			JOINT RightAnkle
			{
				OFFSET 0.000000 -0.404085 0.000000 
				CHANNELS 3 Zrotation Xrotation Yrotation
				End Site
				{
					OFFSET 0.204105 -0.089430 0.008415 
				}
			}
		}
	}
	JOINT LeftHip
	{
		OFFSET 0.052140 -0.069960 -0.075570 
		CHANNELS 3 Zrotation Xrotation Yrotation
		JOINT LeftKnee
		{
			OFFSET 0.000000 -0.402270 0.000000 
			CHANNELS 1 Zrotation
			JOINT LeftAnkle
			{
				OFFSET 0.000000 -0.404085 0.000000 
				CHANNELS 3 Zrotation Xrotation Yrotation
				End Site
				{
					OFFSET 0.204105 -0.089430 -0.008415 
				}
			}
		}
	}
}
MOTION
Frames: 20
Frame Time: 0.02
0.04712 0.98562 1.60179 1422.33167 0 3.49532 6.51712 -2.27067 7.08791 -23.47493 -2.23016 3.60121 16.95846 -12.08088 -0.87736 16.37982 81.26531 -1.80315 -2.42897 8.21072 7.58222 32.40742 6.64184 -80.73045 -10.22957 4.58837 -8.24097 -4.92295 6.22477 -38.90795 9.00042 2.94824 9.55839 10.68411 -12.14355 6.53198 -11.14094 -0.18296 3.00929 5.10445
0.06497 0.98435 1.60104 1421.43814 0 4.48248 6.65228 -3.03891 7.15252 -23.30612 -2.21776 3.65528 16.55939 -12.44118 -0.98795 15.99771 81.30815 -1.66452 -1.94323 8.99227 7.6297 31.23615 6.91873 -80.6685 -10.38064 4.52153 -5.35589 -6.51745 6.40462 -44.341 5.61866 2.45617 10.00474 9.86885 -12.53567 12.86807 -12.09223 0.5909 2.47738 1.87493
0.08129 0.98223 1.60022 1420.68323 0 5.46238 6.57116 -3.85411 7.03706 -22.7488 -2.10014 3.6664 15.95587 -12.86539 -1.13287 15.60039 81.36794 -1.51381 -1.46081 9.57314 7.63786 29.75891 7.23147 -80.52356 -10.52912 4.45515 -1.89763 -7.9678 6.62165 -50.35222 1.69098 1.64244 10.04143 9.2004 -12.78085 20.39029 -13.34515 1.62036 1.81875 -2.06195
0.09824 0.98056 1.59949 1419.89449 0 6.41301 6.591 -4.623 6.98652 -22.40004 -2.02904 3.68555 15.47214 -13.24514 -1.28446 15.21659 81.41843 -1.3793 -0.99019 10.27749 7.67493 28.42584 7.52895 -80.42971 -10.68192 4.39294 1.28374 -9.42175 6.81567 -56.00552 -1.838 0.99384 10.20915 8.45774 -13.08766 27.15802 -14.42128 2.52163 1.23796 -5.56234
0.11549 0.9786 1.59852 1418.97589 0 7.50656 6.60295 -5.49925 7.01342 -21.92621 -1.96801 3.75371 14.88032 -13.68938 -1.3465 14.7985 81.47509 -1.20013 -0.45696 10.8628 7.66946 27.05659 7.8246 -80.28978 -10.8246 4.31173 4.5544 -11.14722 7.03472 -62.10174 -6.01045 0.26294 10.61524 7.74028 -13.41773 34.8744 -15.65963 3.48327 0.57495 -9.55704
0.13173 0.97706 1.59804 1418.3651 0 8.29758 6.57753 -6.16192 6.83334 -21.61438 -1.85804 3.71106 14.45924 -14.01566 -1.6 14.4514 81.52328 -1.10934 -0.05732 11.63941 7.74023 25.69551 8.13178 -80.22141 -10.98669 4.26975 7.76457 -12.26819 7.21041 -67.38274 -8.97372 -0.37396 10.42627 7.00794 -13.66374 40.87183 -16.63231 4.37542 0.04966 -12.68761
0.14566 0.97691 1.59889 1418.54783 0 8.26829 6.51554 -6.22817 6.13386 -21.87385 -1.65341 3.35218 14.60593 -13.98891 -2.392 14.29442 81.54209 -1.28507 -0.02627 13.02148 8.04894 24.43462 8.45945 -80.37972 -11.20063 4.34416 10.70197 -11.76547 7.26392 -70.4417 -8.40922 -0.64803 8.68677 6.19543 -13.71493 41.95498 -16.81703 5.02297 -0.03636 -13.2478
0.15861 0.97722 1.60025 1419.04009 0 7.93224 6.4204 -6.07717 5.23063 -22.30296 -1.39991 2.88671 14.9225 -13.84349 -3.37133 14.21151 81.55205 -1.54689 -0.12991 14.59492 8.43186 23.19496 8.7973 -80.60991 -11.43382 4.4569 13.54868 -10.65677 7.27299 -72.62247 -6.61744 -0.81962 6.36575 5.36441 -13.68607 41.24349 -16.72215 5.589 0.01589 -12.91432
0.17195 0.97733 1.6014 1419.40649 0 7.7266 6.3313 -6.02169 4.41384 -22.63489 -1.15867 2.4834 15.13105 -13.75985 -4.25305 14.10242 81.56748 -1.75639 -0.17305 16.06115 8.76909 21.94477 9.1322 -80.80006 -11.65968 4.54664 16.41344 -9.81663 7.29626 -75.09296 -5.42203 -1.05454 4.31151 4.54468 -13.69289 41.26534 -16.74253 6.1843 -0.0144 -12.99631
0.18546 0.97738 1.60245 1419.71645 0 7.55657 6.27335 -5.97963 3.61437 -23.0397 -0.95593 2.02102 15.46346 -13.6448 -5.19024 13.9631 81.57792 -2.02032 -0.21506 17.60916 9.15641 20.68381 9.46257 -81.01856 -11.88085 4.65908 19.40126 -8.99783 7.33979 -78.05576 -4.08307 -1.23307 2.22129 3.71746 -13.69789 41.66364 -16.8199 6.82026 0.03151 -13.065
0.19842 0.97768 1.60384 1420.214 0 7.24239 6.14477 -5.85965 2.73591 -23.33613 -0.66263 1.65651 15.57979 -13.56679 -6.05398 13.90204 81.59577 -2.19254 -0.28906 19.03099 9.45638 19.45882 9.80277 -81.19619 -12.11473 4.73441 22.09749 -7.99581 7.33804 -79.76458 -2.74422 -1.49671 0.08734 2.90001 -13.68917 40.85202 -16.71231 7.35036 -0.04358 -12.93833
0.2101 0.97866 1.60605 1421.16857 0 6.58043 5.83657 -5.55724 1.66293 -23.30986 -0.13305 1.59209 15.06797 -13.61402 -6.68589 14.06067 81.64177 -2.08101 -0.43859 20.09045 9.5069 18.29256 10.18017 -81.24279 -12.3926 4.68868 24.05745 -6.60845 7.15264 -78.32499 -1.70375 -2.05099 -2.14475 2.10945 -13.66616 36.99065 -16.12641 7.59324 -0.51228 -12.49886
0.22127 0.97988 1.60859 1422.29804 0 5.78835 5.45849 -5.18699 0.5235 -23.16743 0.4853 1.62946 14.33203 -13.70318 -7.23448 14.29129 81.69451 -1.87572 -0.61185 21.01093 9.46533 17.17035 10.56438 -81.24626 -12.67987 4.60589 25.71367 -5.06395 6.93508 -75.63142 -0.7027 -2.68702 -4.37662 1.32938 -13.63201 31.99323 -15.36928 7.73389 -1.10116 -11.88755
0.23268 0.98094 1.61098 1423.33681 0 5.07247 5.1083 -4.86156 -0.56767 -23.06795 1.06437 1.61785 13.69307 -13.77712 -7.80949 14.47518 81.74031 -1.72007 -0.76111 21.97468 9.45953 16.0523 10.93733 -81.27025 -12.9541 4.54628 27.47756 -3.60962 6.77883 -73.44477 0.31686 -3.26411 -6.52781 0.54694 -13.60113 27.60916 -14.71257 7.92976 -1.61872 -11.34733
0.24402 0.98223 1.6134 1424.43291 0 4.275 4.77182 -4.4715 -1.74319 -23.01476 1.64288 1.61358 13.08029 -13.8318 -8.43774 14.72193 81.80175 -1.53913 -0.97108 23.02979 9.48173 14.83116 11.34598 -81.29288 -13.26669 4.46174 29.37403 -2.0529 6.42773 -71.49679 1.37357 -3.93027 -9.03968 -0.24573 -13.57519 22.76115 -13.95064 8.08589 -2.20583 -10.81007
0.25543 0.98308 1.61582 1425.44824 0 3.61913 4.39232 -4.20028 -2.75499 -22.83659 2.24031 1.62008 12.3578 -13.9368 -8.9349 14.85249 81.83287 -1.3857 -1.05819 23.85811 9.42307 13.8369 11.68069 -81.3071 -13.50051 4.4192 30.91433 -0.68251 6.47062 -68.76137 2.33116 -4.43106 -10.79375 -1.01495 -13.53705 18.62323 -13.37109 8.30161 -2.67365 -10.23225
0.26698 0.98267 1.61818 1426.18629 0 3.40005 3.89761 -4.2964 -3.30627 -22.33158 2.89064 1.62761 11.38528 -14.18192 -9.07212 14.6565 81.774 -1.34676 -0.80243 24.10159 9.16108 13.44208 11.81847 -81.30926 -13.5218 4.5071 31.62306 0.15394 7.65038 -64.20423 2.98621 -4.46012 -10.44277 -1.71714 -13.47099 16.81609 -13.33607 8.70572 -2.82459 -9.63316
0.27866 0.9818 1.62053 1426.83766 0 3.32704 3.36505 -4.5115 -3.68769 -21.70625 3.55238 1.64364 10.31016 -14.47448 -9.08289 14.33878 81.68526 -1.33592 -0.42143 24.11897 8.82125 13.27666 11.87991 -81.30411 -13.46208 4.63742 31.97084 0.79148 9.21998 -58.90111 3.54188 -4.31972 -9.32947 -2.39695 -13.39261 15.75598 -13.49239 9.17346 -2.84471 -8.99573
0.29038 0.98113 1.62287 1427.53459 0 3.17942 2.8585 -4.65817 -4.14106 -21.14139 4.19419 1.65887 9.28177 -14.73867 -9.16245 14.06828 81.61335 -1.30089 -0.09523 24.23448 8.51799 13.01733 11.97036 -81.30143 -13.43453 4.74454 32.43198 1.50376 10.58479 -53.90439 4.1647 -4.25387 -8.56918 -3.09009 -13.31861 14.3006 -13.56268 9.61385 -2.89723 -8.34684
0.30164 0.98048 1.62526 1428.21154 0 3.06129 2.31105 -4.86221 -4.62019 -20.54666 4.902 1.66491 8.24303 -15.03384 -9.19089 13.83343 81.52811 -1.30872 0.22244 24.36613 8.20541 12.71749 12.08492 -81.30042 -13.42678 4.8667 33.0919 2.28541 12.06639 -48.97062 4.70246 -4.20027 -7.7776 -3.76946 -13.2504 13.0339 -13.62148 10.04598 -3.06588 -7.80837
